<?xml version="1.0" encoding="UTF-8"?>
<!DOCTYPE svg PUBLIC "-//W3C//DTD SVG 1.1//EN" "http://www.w3.org/Graphics/SVG/1.1/DTD/svg11.dtd">
<!-- Creator: CorelDRAW 2020 (64-Bit) -->
<svg xmlns="http://www.w3.org/2000/svg" xml:space="preserve" width="186.088mm" height="38.9514mm" version="1.1" style="shape-rendering:geometricPrecision; text-rendering:geometricPrecision; image-rendering:optimizeQuality; fill-rule:evenodd; clip-rule:evenodd"
viewBox="0 0 18608.82 3895.14"
 xmlns:xlink="http://www.w3.org/1999/xlink"
 xmlns:xodm="http://www.corel.com/coreldraw/odm/2003">
 <defs>
  <style type="text/css">
   <![CDATA[
    .fil2 {fill:#6666FF}
    .fil1 {fill:#FF3399}
    .fil0 {fill:url(#id0);fill-rule:nonzero}
   ]]>
  </style>
  <linearGradient id="id0" gradientUnits="userSpaceOnUse" x1="-0" y1="3895.15" x2="3373.31" y2="3895.06">
   <stop offset="0" style="stop-opacity:1; stop-color:#6666FF"/>
   <stop offset="1" style="stop-opacity:1; stop-color:#FF3399"/>
  </linearGradient>
 </defs>
 <g id="Layer_x0020_1">
  <metadata id="CorelCorpID_0Corel-Layer"/>
  <g id="_2922527694288">
   <path class="fil0" d="M2108.33 1704.12l-0.01 0.01 0 486.88 421.66 243.46 843.31 -486.93 0 -973.75 -1686.65 -973.79 -421.63 243.45 1686.63 973.79 0 486.88 -421.67 243.44 -421.65 -243.44 0.01 0zm-843.34 -0.02l-421.65 -243.44 -843.31 486.94 -0.03 973.75 1686.65 973.79 421.65 -243.45 -1686.62 -973.78 -0.02 -486.89 421.65 -243.45 421.68 243.46 0 -486.93zm0 486.93l0 486.88 1264.96 730.32 843.34 -486.88 0 -486.88 -843.31 486.88 -1264.99 -730.32zm843.33 -973.79l-1264.96 -730.33 -843.33 486.87 0 486.91 843.31 -486.9 1264.98 730.32 0 -486.87z"/>
   <g>
    <path class="fil1" d="M17637.8 2639.66l0 -1384.19 971.02 0 0 146.58 -818.71 0 0 453.17 795.55 0 0 140.9 -795.55 0 0 498.82 818.71 0 0 144.72 -971.02 0zm-1616.49 0l0 -1384.19 236.07 0 750.17 1235.36 0 -1235.36 152.33 0 0 1384.19 -236.09 0 -750.19 -1237.26 0 1237.26 -152.29 0zm-630.23 0l0 -1384.19 154.22 0 0 1384.19 -154.22 0zm-1591.74 -926.92c0,-176.76 36.52,-299.89 109.79,-369.7 73.01,-69.81 202.8,-104.71 388.75,-104.71l175.79 0c170.41,0 296.39,28.87 377.29,86.95 80.94,58.07 121.24,148.51 121.24,271.33l0 58.69 -158.03 0 0 -16.83c0,-95.19 -24.12,-161.82 -72.68,-199.28 -48.24,-37.44 -140.56,-56.16 -277.02,-56.16l-121.87 0c-94.86,0 -163.09,5.4 -204.66,15.85 -41.57,10.49 -76.79,28.26 -105.98,53.02 -26.67,22.84 -45.72,53.3 -56.49,91.69 -10.8,38.39 -16.18,107.59 -16.18,207.23l0 394.45c0,98.99 5.38,167.85 16.18,206.24 10.77,38.42 29.82,68.87 56.49,91.72 29.19,24.75 63.77,42.51 104.07,53 40.3,10.46 109.16,15.84 206.57,15.84l121.87 0c87.9,0 150.43,-4.74 186.92,-13.95 36.48,-9.2 68.2,-25.05 94.88,-47.28 24.73,-21.26 42.2,-49.83 52.66,-86.3 10.17,-36.82 15.24,-99.33 15.24,-187.86l0 -85.37 -384.29 0 0 -140.88 542.32 0 0 231.96c0,177.38 -36.5,300.82 -109.8,370.33 -72.98,69.48 -202.78,104.07 -388.73,104.07l-175.79 0c-185.95,0 -315.74,-34.59 -388.75,-104.07 -73.27,-69.51 -109.79,-192.95 -109.79,-370.33l0 -469.65zm-1563.16 926.92l0 -1384.19 236.07 0 750.18 1235.36 0 -1235.36 152.32 0 0 1384.19 -236.1 0 -750.17 -1237.26 0 1237.26 -152.3 0zm-1358.19 0l0 -1384.19 971.03 0 0 146.58 -818.72 0 0 453.17 795.56 0 0 140.9 -795.56 0 0 498.82 818.72 0 0 144.72 -971.03 0z"/>
    <path class="fil2" d="M10341.21 2656.79l-454.22 0 -602.67 -1185.83 -11.68 0 15.14 588.19 7.56 597.64 -274.22 0 0 -1418.44 452.01 0 608.99 1185.82 7.57 0 -22.69 -1185.82 274.21 0 0 1418.44zm-2013.13 -472.82l-244.29 -739.5 -0.97 0 -244.59 739.5 489.85 0zm433.08 472.82l-278.01 0 -90.78 -266.66 -614.96 0 -90.81 266.66 -281.16 0 472.82 -1418.44 399.05 0 483.85 1418.44zm-1842.62 -510.64l0 -427.43c0,-92.35 -15.75,-156.65 -47.26,-192.61 -30.28,-34.65 -79.45,-55.77 -148.17,-62.71 -23.64,-2.53 -68.71,-3.78 -134.58,-3.78 -172.12,0 -271.72,30.89 -299.46,92.66 -18.59,41.61 -30.58,104.65 -36.25,189.44 3.8,11.04 5.67,25.54 5.67,43.52l0 336.31c0,118.22 13.24,198.27 39.72,240.2 20.51,32.46 52.34,52.96 95.2,61.47 52.65,10.4 115.99,15.75 190.38,16.07 76.28,0 139.02,-6.61 188.82,-19.55 42.55,-10.7 75.32,-29.94 98.98,-57.99 31.2,-46.33 46.95,-118.2 46.95,-215.6zm274.24 41.62c0,85.41 -7.89,151.6 -23.96,198.26 -17.03,48.86 -40.04,93.63 -68.71,134.28 -31.83,44.76 -78.16,78.15 -138.7,100.23 -86.36,31.82 -223.8,47.6 -411.97,47.6 -107.8,0 -198.89,-7.89 -272.66,-23.64 -71.23,-15.14 -131.46,-48.23 -181.25,-99.6 -71.55,-74.1 -107.49,-207.11 -107.49,-398.75l0 -387.71c0,-180.95 27.12,-309.85 81.66,-387.72 54.2,-77.54 156.95,-122.93 307.93,-135.83 60.86,-5.36 130.18,-7.89 208.06,-7.89 169.91,0 299.43,17.02 389.28,50.75 57.68,21.73 100.56,54.22 128.59,97.08 59.58,64.31 89.22,182.81 89.22,355.23l0 457.71zm-1430.32 469.02l-939.95 0 0 -1418.44 274.22 0 0 1185.82 665.73 0 0 232.62z"/>
   </g>
  </g>
 </g>
</svg>
